<?xml version="1.0" standalone="no"?>
<!DOCTYPE svg PUBLIC "-//W3C//DTD SVG 20010904//EN"
 "http://www.w3.org/TR/2001/REC-SVG-20010904/DTD/svg10.dtd">
<svg version="1.0" xmlns="http://www.w3.org/2000/svg"
 width="216.000000pt" height="216.000000pt" viewBox="0 0 216.000000 216.000000"
 preserveAspectRatio="xMidYMid meet">

<g transform="translate(0.000000,216.000000) scale(0.100000,-0.100000)"
fill="#000000" stroke="none">
<path d="M980 2076 c-19 -7 -57 -22 -85 -35 -27 -13 -95 -30 -150 -38 -177
-26 -206 -48 -320 -232 -57 -91 -154 -200 -226 -250 -19 -13 -41 -30 -49 -38
-33 -29 -106 -83 -128 -95 -12 -6 -22 -20 -22 -30 0 -17 2 -17 28 -4 15 8 36
23 46 35 11 12 24 21 29 21 11 0 91 61 175 134 71 62 163 175 196 241 39 81
98 141 159 161 59 20 53 19 132 28 33 4 85 17 115 28 30 11 77 29 105 39 60
23 87 23 189 4 89 -17 96 -18 216 -35 143 -20 155 -25 181 -84 43 -99 72 -216
53 -216 -3 0 -12 7 -20 15 -23 22 -123 20 -140 -2 -17 -22 -18 -75 -2 -91 17
-17 113 -15 148 3 17 9 30 23 30 31 0 49 60 -37 99 -144 13 -34 28 -65 32 -68
28 -17 -28 -134 -78 -161 -18 -10 -33 -21 -33 -24 0 -15 29 -17 55 -3 39 20
44 8 38 -90 -6 -116 -6 -115 -80 -192 -37 -38 -77 -85 -87 -104 -15 -28 -40
-45 -119 -85 l-100 -50 -176 0 c-149 0 -181 3 -206 17 -16 10 -36 18 -43 18
-40 0 -141 69 -257 177 -70 65 -135 121 -145 125 -9 3 -58 45 -107 92 -50 47
-94 86 -97 86 -4 0 -20 10 -36 22 -16 12 -32 19 -35 16 -8 -7 204 -211 250
-240 22 -14 90 -73 151 -131 173 -163 263 -206 454 -216 l115 -6 3 -37 c2 -20
13 -56 26 -80 21 -40 26 -43 74 -49 29 -4 60 -10 69 -15 10 -4 108 -11 218
-15 174 -6 211 -11 284 -33 47 -14 95 -26 108 -26 13 0 23 -4 23 -9 0 -9 -69
-88 -160 -184 -48 -51 -64 -61 -120 -76 -79 -22 -96 -47 -25 -38 79 11 127 39
191 112 32 38 79 89 102 114 66 70 79 106 86 256 4 72 11 146 16 165 21 86 42
406 25 389 -2 -3 -9 -45 -16 -94 -6 -50 -17 -135 -25 -190 -8 -55 -19 -152
-25 -215 -5 -63 -12 -135 -15 -159 l-6 -44 -51 7 c-29 3 -83 17 -121 31 -64
23 -82 25 -250 25 -132 0 -192 4 -221 15 -22 8 -57 14 -77 15 -33 0 -39 4 -58
43 -12 24 -20 54 -18 68 3 21 9 25 60 30 32 4 79 17 105 31 151 77 154 80 188
131 19 29 61 78 94 110 l59 58 7 103 c4 66 3 117 -4 144 -10 35 -9 45 9 74 20
34 27 92 11 102 -4 3 -16 27 -26 53 -28 77 -57 135 -87 174 -15 20 -28 45 -28
54 0 31 -31 129 -62 197 -29 61 -34 67 -72 76 -42 10 -160 30 -231 38 -22 3
-71 12 -110 20 -82 17 -156 17 -205 0z m562 -378 c-15 -8 -21 -17 -16 -30 4
-13 0 -18 -16 -18 -23 0 -35 21 -26 45 3 10 18 15 43 14 35 0 36 -1 15 -11z"/>
<path d="M450 1681 c0 -14 -122 -142 -155 -162 -25 -16 -27 -19 -9 -19 29 0
105 51 135 91 24 32 48 99 35 99 -3 0 -6 -4 -6 -9z"/>
<path d="M1387 1623 c-9 -9 33 -54 44 -47 13 8 11 21 -7 38 -17 17 -27 20 -37
9z"/>
<path d="M635 1603 c-67 -12 -65 -10 -65 -63 0 -42 4 -52 25 -66 13 -8 39 -16
57 -17 28 -2 33 -5 30 -24 -6 -41 50 -16 77 34 16 31 14 43 -9 43 -14 0 -20 7
-20 23 0 39 -53 77 -95 70z m65 -67 c0 -33 -13 -46 -44 -45 -23 1 -25 3 -8 6
25 5 29 25 7 43 -20 17 -42 6 -48 -22 -3 -15 -5 -11 -6 14 -1 31 3 37 22 40
28 5 77 -18 77 -36z m20 -71 c-7 -9 -15 -13 -17 -11 -6 6 20 36 26 30 2 -2 -2
-10 -9 -19z"/>
<path d="M1205 1555 c-21 -12 -43 -15 -75 -10 -122 16 -155 16 -205 -4 -29
-11 -51 -26 -54 -36 -3 -20 1 -19 80 11 42 16 53 16 120 4 41 -8 79 -20 84
-27 9 -11 15 -9 34 11 34 36 115 36 185 1 59 -30 56 -29 56 -7 0 45 -168 88
-225 57z"/>
<path d="M1281 1488 l-34 -31 -146 7 c-143 6 -147 5 -186 -19 -73 -45 -88 -49
-104 -26 -17 26 -31 27 -31 2 0 -11 21 -38 49 -61 53 -45 74 -94 69 -163 -1
-24 2 -42 9 -44 20 -7 23 12 12 73 -24 136 -24 138 -4 130 10 -3 24 -1 32 6
11 9 13 8 11 -3 -2 -10 8 -14 33 -15 20 -1 47 -9 60 -17 13 -9 69 -30 124 -47
138 -44 133 -42 113 -47 -10 -3 -18 -11 -18 -19 0 -17 44 -19 89 -3 51 18 114
-4 135 -47 18 -39 60 -64 77 -47 12 12 -4 53 -21 53 -6 0 -10 7 -10 16 0 21
-63 84 -84 84 -25 0 -4 32 50 76 39 32 48 36 65 26 25 -16 72 -16 67 1 -3 6
-13 14 -24 16 -32 6 -71 39 -84 71 -19 46 -42 31 -29 -19 3 -10 -9 -18 -34
-24 -32 -8 -46 -5 -93 18 -52 25 -55 29 -49 56 8 37 -1 36 -44 -3z m-371 -108
c0 -13 -20 -13 -40 0 -12 8 -9 10 13 10 15 0 27 -4 27 -10z m491 -103 c-6 -8
-7 -17 -3 -22 4 -4 -4 -4 -18 0 -14 4 -28 11 -33 16 -4 5 -5 7 -1 5 3 -2 17 0
32 4 15 5 29 9 31 9 2 1 -2 -5 -8 -12z"/>
<path d="M1580 1318 c0 -26 26 -84 48 -113 19 -24 23 -38 19 -69 -3 -21 -11
-43 -19 -47 -18 -12 -86 -11 -93 1 -4 6 -30 22 -58 37 -59 30 -188 45 -202 24
-11 -19 3 -26 56 -27 27 -1 60 -2 73 -3 13 0 47 -17 76 -36 43 -29 61 -35 104
-35 72 0 91 21 91 100 0 46 -5 64 -21 82 -12 13 -28 40 -35 61 -12 35 -39 52
-39 25z"/>
<path d="M160 1306 c0 -8 5 -18 10 -21 6 -4 10 -54 10 -118 0 -86 -4 -118 -16
-135 -8 -12 -14 -28 -11 -35 9 -29 39 48 49 130 9 72 8 97 -4 137 -14 48 -38
74 -38 42z"/>
<path d="M115 751 c-60 -27 -115 -93 -115 -137 0 -41 14 -37 34 9 19 45 61 84
109 100 24 8 43 21 45 30 4 22 -21 21 -73 -2z"/>
<path d="M933 644 c3 -11 8 -29 12 -41 7 -27 60 -73 83 -73 12 0 6 9 -18 29
-19 16 -39 44 -45 62 -12 35 -41 56 -32 23z"/>
<path d="M467 373 c-14 -14 -6 -18 37 -19 27 -1 55 -9 74 -22 16 -12 35 -22
40 -22 6 0 19 -16 31 -35 20 -34 22 -35 84 -35 l63 0 32 45 c31 44 33 45 87
45 30 0 55 5 55 10 0 6 -25 10 -56 10 -52 0 -59 -3 -90 -36 -19 -19 -34 -40
-34 -45 0 -5 -25 -9 -55 -9 -50 0 -57 3 -67 26 -22 49 -174 115 -201 87z"/>
</g>
</svg>
