<?xml version="1.0" standalone="no"?>
<!DOCTYPE svg PUBLIC "-//W3C//DTD SVG 20010904//EN"
 "http://www.w3.org/TR/2001/REC-SVG-20010904/DTD/svg10.dtd">
<svg version="1.0" xmlns="http://www.w3.org/2000/svg"
 width="500.000000pt" height="500.000000pt" viewBox="0 0 500.000000 500.000000"
 preserveAspectRatio="xMidYMid meet">

<g transform="translate(0.000000,500.000000) scale(0.100000,-0.100000)"
fill="#000000" stroke="none">
<path d="M2373 4673 c9 -2 23 -2 30 0 6 3 -1 5 -18 5 -16 0 -22 -2 -12 -5z"/>
<path d="M2595 4670 c33 -4 74 -14 90 -21 17 -6 64 -15 105 -19 41 -4 93 -13
115 -19 22 -6 69 -10 105 -10 l65 1 -69 18 c-86 23 -262 48 -381 54 -79 4 -83
4 -30 -4z"/>
<path d="M2185 4658 c-27 -5 -54 -13 -59 -19 -6 -5 -19 -9 -29 -9 -10 0 -31
-7 -45 -15 -67 -36 -161 -65 -215 -65 -31 0 -58 -4 -61 -9 -3 -4 -27 -10 -53
-13 -53 -5 -269 -101 -240 -106 10 -2 32 5 50 16 23 15 60 22 131 27 55 4 115
14 133 21 18 8 53 14 78 14 48 0 130 21 178 46 16 7 37 14 47 14 10 0 21 4 24
9 10 16 113 61 140 61 25 0 86 25 86 35 0 8 -112 3 -165 -7z"/>
<path d="M2350 4610 c0 -5 -11 -10 -24 -10 -13 0 -29 -7 -36 -15 -7 -8 -25
-15 -41 -15 -16 0 -29 -4 -29 -10 0 -5 -9 -10 -19 -10 -10 0 -21 -7 -25 -15
-3 -8 -23 -18 -45 -21 -23 -4 -46 -13 -52 -20 -6 -8 -22 -14 -35 -14 -24 0
-31 -2 -91 -34 -18 -9 -55 -16 -86 -16 -31 0 -59 -4 -62 -10 -3 -5 -37 -10
-75 -10 -85 0 -220 -19 -220 -31 0 -5 -11 -9 -25 -9 -16 0 -25 -6 -25 -15 0
-8 -7 -15 -15 -15 -44 0 -137 -80 -201 -172 -21 -29 -49 -67 -64 -85 -16 -17
-33 -49 -40 -70 -7 -21 -19 -47 -26 -58 -8 -11 -13 -38 -13 -60 l2 -40 6 42
c4 23 12 47 18 55 6 7 16 30 23 51 7 21 24 53 40 70 15 18 43 56 64 85 64 92
157 172 201 172 8 0 15 7 15 15 0 9 9 15 25 15 14 0 25 4 25 9 0 12 135 31
220 31 38 0 72 5 75 10 3 6 31 10 62 10 31 0 68 7 86 16 60 32 67 34 91 34 13
0 29 6 35 14 6 7 29 16 52 20 22 3 42 13 45 21 4 8 15 15 25 15 10 0 19 5 19
10 0 6 13 10 29 10 16 0 34 7 41 15 7 8 23 15 36 15 13 0 24 5 24 10 0 6 51
10 134 10 79 0 137 -4 141 -10 3 -5 18 -10 33 -10 15 0 36 -7 46 -15 11 -8 41
-15 67 -15 26 0 51 -4 54 -10 4 -6 54 -10 116 -10 79 0 116 -4 132 -15 12 -8
49 -17 82 -21 33 -4 69 -13 80 -20 13 -10 46 -13 100 -12 l80 1 -88 6 c-48 3
-91 11 -95 17 -4 6 -36 14 -71 18 -36 3 -75 13 -87 21 -17 11 -52 15 -133 15
-62 0 -112 4 -116 10 -3 6 -28 10 -55 10 -30 0 -54 6 -64 15 -8 8 -28 15 -45
15 -17 0 -31 5 -31 10 0 6 -55 10 -145 10 -90 0 -145 -4 -145 -10z"/>
<path d="M3550 4394 c23 -29 40 -62 40 -78 0 -7 7 -19 15 -26 8 -7 15 -21 15
-31 0 -23 39 -140 51 -153 5 -6 9 -24 9 -42 0 -17 7 -47 16 -65 9 -21 13 -25
8 -9 -3 14 -9 43 -11 65 -3 22 -9 45 -13 50 -12 16 -50 133 -50 154 0 11 -7
26 -15 35 -8 8 -15 21 -15 30 0 8 -4 18 -10 21 -5 3 -10 14 -10 23 0 10 -10
23 -22 31 -22 13 -22 13 -8 -5z"/>
<path d="M3655 4328 c4 -12 16 -38 26 -56 10 -18 19 -41 19 -50 0 -9 6 -29 14
-44 38 -72 73 -296 49 -311 -5 -3 -33 11 -62 31 l-53 37 -108 0 -109 0 -35
-40 c-33 -37 -35 -45 -36 -107 0 -65 1 -67 37 -97 37 -30 40 -31 143 -31 86 0
112 4 143 20 20 11 43 20 50 20 12 0 60 55 63 73 1 4 2 12 3 17 0 6 10 10 20
10 18 0 91 -86 91 -107 0 -6 8 -17 18 -27 11 -9 27 -42 37 -74 11 -31 25 -64
31 -72 7 -8 15 -28 19 -45 6 -29 29 -84 47 -115 4 -8 11 -22 14 -30 3 -8 12
-28 20 -43 27 -55 18 -128 -27 -207 -5 -8 -13 -25 -19 -38 -31 -73 -96 -141
-146 -153 -45 -12 -63 -39 -39 -59 20 -16 83 -2 108 25 12 12 32 25 44 28 32
7 68 -67 59 -121 -14 -76 -24 -200 -25 -285 -1 -93 -8 -115 -50 -158 -14 -15
-60 -63 -101 -108 -41 -45 -90 -90 -107 -101 -18 -11 -33 -24 -33 -29 0 -5
-20 -39 -44 -75 -25 -35 -54 -83 -66 -105 -17 -34 -26 -41 -50 -41 -16 0 -32
-5 -35 -10 -4 -6 -34 -24 -68 -41 -34 -16 -89 -48 -122 -70 -69 -45 -99 -59
-124 -59 -10 0 -24 -7 -31 -15 -7 -8 -23 -15 -35 -15 -12 0 -42 -7 -65 -15
-61 -21 -635 -21 -695 0 -22 8 -49 15 -61 15 -11 0 -29 7 -40 15 -10 8 -28 15
-39 15 -11 0 -33 7 -49 15 -16 8 -47 18 -69 22 -23 3 -46 10 -52 15 -5 4 -55
31 -109 59 -54 28 -113 64 -130 80 -17 16 -36 29 -42 29 -5 0 -75 64 -155 143
-133 130 -194 187 -202 187 -2 0 -45 41 -95 90 -51 50 -99 90 -108 90 -18 0
-62 30 -133 93 -30 26 -58 47 -63 47 -4 0 -71 63 -148 140 -77 77 -145 140
-151 140 -6 0 -30 13 -53 28 -47 32 -72 43 -79 35 -7 -6 431 -443 444 -443 6
0 36 -22 66 -50 31 -27 70 -52 87 -56 18 -4 54 -30 87 -63 93 -92 166 -161
172 -161 9 0 67 -58 67 -68 0 -5 12 -18 27 -27 15 -10 38 -32 52 -49 40 -50
98 -101 162 -145 33 -23 61 -41 63 -41 3 0 28 -16 57 -35 30 -19 59 -35 65
-35 7 0 14 -7 18 -15 3 -8 13 -15 23 -15 10 0 31 -7 47 -15 15 -8 39 -15 53
-15 14 0 59 -16 100 -36 115 -54 182 -64 412 -62 152 1 203 -1 215 -11 13 -11
16 -34 16 -107 0 -52 4 -94 8 -94 5 0 21 -27 37 -61 17 -34 44 -74 63 -90 29
-25 40 -29 95 -29 37 0 86 -8 120 -20 31 -11 69 -20 85 -20 15 0 32 -4 37 -9
6 -6 175 -11 400 -13 223 -2 399 -8 412 -13 21 -10 21 -10 2 -34 -20 -24 -20
-24 -103 -12 -57 9 -185 12 -407 9 -283 -3 -328 -1 -359 13 -53 25 -138 49
-174 49 -52 1 -133 24 -159 45 -23 18 -55 78 -71 133 -4 12 -12 22 -17 22 -5
0 -9 9 -9 20 0 11 -4 20 -10 20 -6 0 -10 30 -10 70 l0 70 -229 0 c-191 0 -231
2 -241 15 -7 8 -21 15 -31 15 -10 0 -21 5 -24 10 -3 6 -15 10 -26 10 -11 0
-22 7 -25 15 -4 10 -15 12 -34 9 -15 -4 -31 -1 -34 5 -4 6 -18 11 -30 11 -13
0 -29 7 -36 15 -7 8 -25 15 -41 15 -15 0 -30 4 -33 9 -6 8 -46 22 -46 16 0 -8
65 -35 85 -35 13 0 28 -7 35 -15 7 -8 23 -15 36 -15 12 0 26 -5 29 -10 3 -6
17 -10 31 -10 13 0 33 -5 44 -10 11 -6 29 -15 40 -20 11 -6 26 -10 34 -10 7 0
19 -7 26 -15 10 -13 50 -15 236 -15 l224 0 1 -62 c0 -44 6 -72 20 -93 10 -16
22 -37 25 -45 42 -96 57 -120 81 -137 29 -20 115 -43 163 -43 32 0 118 -25
170 -49 31 -14 76 -16 362 -13 226 3 350 0 403 -9 l77 -12 -69 -69 c-251 -255
-602 -461 -951 -558 -218 -60 -323 -74 -587 -74 -260 0 -363 13 -578 71 -97
26 -98 27 -66 37 19 6 38 20 44 32 13 26 62 89 96 123 45 46 64 52 166 50 105
-2 124 7 122 60 -1 24 -2 23 -10 -6 -5 -18 -14 -35 -20 -39 -6 -3 -53 -6 -105
-5 -99 2 -118 -4 -163 -50 -37 -37 -85 -99 -93 -120 -16 -42 -92 -51 -168 -19
l-45 19 88 0 87 1 23 48 c70 145 94 162 241 162 88 0 106 3 106 15 0 12 -17
15 -92 15 -51 0 -111 -5 -133 -11 -40 -11 -105 -63 -105 -84 0 -6 -22 -34 -48
-63 l-48 -52 -95 0 c-113 0 -136 6 -145 34 -16 53 -60 106 -109 130 -28 15
-54 26 -58 26 -4 0 -20 11 -35 25 -15 14 -32 25 -38 25 -7 0 -31 9 -55 20 -24
11 -62 20 -85 20 -35 0 -49 8 -115 67 -154 139 -297 306 -399 463 -72 113
-170 306 -170 337 0 15 -4 22 -11 17 -8 -4 -9 1 -4 16 5 15 4 20 -3 16 -13 -8
-74 176 -108 324 -29 128 -29 120 -1 120 13 0 43 19 69 43 39 36 47 49 53 92
4 28 13 88 21 134 9 52 13 145 12 250 l-1 166 -7 -200 c-3 -110 -9 -205 -12
-210 -4 -6 -12 -49 -18 -95 -11 -82 -13 -86 -58 -127 -49 -46 -76 -54 -86 -26
-4 9 -12 85 -18 170 -11 138 -14 153 -31 153 -17 0 -18 -7 -12 -97 53 -829
493 -1512 1210 -1875 325 -164 637 -238 1008 -238 675 0 1296 299 1727 831
103 126 165 223 243 377 143 282 218 565 242 910 6 86 5 92 -12 92 -17 0 -20
-14 -31 -157 -29 -376 -152 -738 -354 -1044 -102 -154 -96 -149 -159 -143 -30
2 -220 6 -424 7 -322 2 -373 4 -395 19 -14 8 -42 19 -62 22 -20 4 -50 13 -65
21 -17 9 -57 15 -105 15 -84 0 -94 7 -113 70 -5 14 -18 39 -31 56 -20 26 -24
43 -24 100 0 41 5 75 12 82 7 7 39 12 73 13 81 0 198 22 229 42 14 10 33 17
43 17 10 0 36 14 57 30 22 17 45 30 51 30 6 0 36 17 66 38 64 44 122 72 149
72 32 0 140 127 140 164 0 20 116 149 169 188 23 16 41 35 41 42 0 14 17 31
68 72 51 41 72 98 72 199 0 54 5 96 14 113 19 37 20 234 2 282 -8 19 -20 58
-29 87 -15 51 -14 53 10 85 14 18 29 42 34 53 6 11 16 31 24 45 22 38 20 151
-3 181 -25 33 -82 155 -82 177 0 9 -9 34 -20 55 -11 20 -20 45 -20 56 0 10 -6
24 -14 30 -20 17 -56 88 -56 111 0 10 -6 23 -13 27 -7 4 -29 28 -48 53 -18 24
-42 53 -51 64 -10 11 -18 25 -19 30 -4 84 -23 165 -60 261 -10 28 -19 64 -19
82 0 31 -28 60 -88 92 -22 12 -23 11 -17 -11z m-60 -468 l30 -7 -28 -11 c-16
-7 -32 -12 -37 -12 -5 0 -14 -9 -20 -21 -9 -16 -8 -26 4 -43 14 -22 13 -24
-11 -35 -36 -17 -92 -4 -105 24 -16 35 -1 94 25 105 26 10 100 11 142 0z m135
-74 c0 -3 -4 -8 -10 -11 -5 -3 -10 -1 -10 4 0 6 5 11 10 11 6 0 10 -2 10 -4z
m-2484 -3047 c3 -5 14 -9 24 -9 10 0 45 -15 77 -34 33 -19 70 -37 84 -41 24
-6 86 -81 76 -91 -6 -7 -121 58 -227 129 -93 62 -98 66 -66 60 15 -3 29 -9 32
-14z"/>
<path d="M1215 4262 c-111 -83 -135 -104 -135 -116 0 -5 -6 -17 -14 -25 -7 -9
-21 -37 -30 -62 -10 -25 -39 -74 -66 -110 -27 -35 -49 -68 -50 -73 0 -9 -43
-64 -99 -125 -17 -19 -40 -48 -52 -65 -12 -17 -42 -47 -66 -66 -100 -77 -169
-158 -187 -218 -7 -21 -6 -21 20 -12 15 6 61 43 102 83 40 40 99 97 130 127
62 59 202 224 202 237 1 4 14 24 30 43 17 19 30 40 30 46 0 7 10 25 23 41 26
33 45 62 53 83 25 61 49 101 83 139 23 25 41 49 41 54 0 6 19 27 42 49 23 21
39 38 37 38 -2 0 -45 -30 -94 -68z"/>
<path d="M3346 3931 c-10 -11 -16 -26 -13 -33 4 -10 6 -10 6 1 1 8 8 23 18 33
9 10 14 18 11 18 -3 0 -13 -9 -22 -19z"/>
<path d="M3306 3853 c-8 -52 -8 -131 2 -136 4 -3 7 35 8 84 1 49 0 89 -1 89
-1 0 -5 -17 -9 -37z"/>
<path d="M1122 3788 c-1 -37 -6 -70 -12 -73 -5 -3 -10 -17 -10 -29 0 -13 -7
-29 -15 -36 -8 -7 -15 -19 -15 -26 0 -8 -4 -14 -10 -14 -5 0 -10 -7 -10 -15 0
-8 -5 -15 -10 -15 -6 0 -14 -8 -17 -17 -7 -18 -131 -143 -142 -143 -4 0 -16
-8 -27 -19 -11 -10 -38 -26 -60 -35 -21 -10 -48 -23 -59 -29 -11 -6 -69 -14
-129 -17 -78 -4 -111 -10 -114 -19 -2 -7 -13 -22 -24 -33 -11 -11 -17 -22 -15
-25 7 -6 43 30 49 48 3 10 30 15 102 17 56 1 112 8 130 16 94 41 111 50 130
67 11 11 23 19 27 19 11 0 135 125 142 143 3 9 11 17 17 17 5 0 10 7 10 15 0
8 5 15 10 15 6 0 10 6 10 14 0 7 7 19 15 26 8 7 15 22 15 34 0 12 5 27 10 32
7 7 9 40 7 80 l-3 69 -2 -67z"/>
<path d="M964 3678 c-62 -82 -115 -138 -131 -138 -7 0 -13 -4 -13 -10 0 -20
-66 -83 -114 -108 -44 -22 -48 -27 -28 -30 13 -2 31 3 41 12 10 9 33 19 52 22
38 8 128 74 174 129 17 19 43 48 59 64 20 21 30 42 33 75 8 66 -15 61 -73 -16z"/>
<path d="M3189 3713 l-24 -28 28 24 c25 23 32 31 24 31 -2 0 -14 -12 -28 -27z"/>
<path d="M3815 3689 c-4 -6 -17 -14 -29 -19 -15 -6 -16 -9 -5 -9 9 -1 22 6 29
14 16 19 40 20 40 1 0 -7 9 -25 20 -39 11 -14 20 -32 20 -40 0 -9 16 -46 35
-83 19 -37 35 -75 35 -86 0 -24 37 -103 56 -119 8 -6 14 -19 14 -28 0 -9 5
-22 11 -28 12 -12 8 -68 -9 -122 -15 -45 -2 -31 15 17 15 44 17 98 3 107 -5 3
-10 14 -10 24 0 10 -6 24 -14 30 -22 18 -56 97 -56 130 0 16 -3 31 -8 33 -12
5 -62 108 -62 129 0 10 -9 28 -20 39 -11 11 -20 29 -20 40 0 22 -34 28 -45 9z"/>
<path d="M3152 3645 c-2 -47 1 -54 36 -87 20 -20 47 -41 59 -47 30 -15 82 -13
118 5 17 8 21 12 10 8 -82 -24 -120 -17 -174 34 -34 32 -40 45 -44 87 l-3 50
-2 -50z"/>
<path d="M3213 3654 c-6 -17 49 -80 80 -90 52 -16 40 62 -14 88 -43 22 -58 22
-66 2z"/>
<path d="M3740 3640 c-8 -5 -25 -10 -38 -10 -12 0 -31 -5 -41 -12 -15 -9 -25
-9 -46 0 -16 7 -67 11 -133 10 l-107 -2 115 -7 c63 -3 127 -10 141 -14 16 -4
29 -3 33 4 4 6 19 11 34 11 25 1 90 29 67 29 -5 1 -17 -4 -25 -9z"/>
<path d="M1359 3589 c-28 -30 -29 -35 -29 -123 1 -103 5 -112 72 -150 40 -22
59 -26 133 -26 67 0 87 3 91 15 4 8 11 15 18 15 6 0 16 10 21 21 13 29 29 29
33 2 2 -13 -1 -23 -7 -23 -6 0 -11 -6 -11 -14 0 -8 -9 -18 -20 -21 -29 -9 -79
-66 -73 -82 18 -48 133 29 182 122 36 69 22 98 -38 77 -26 -9 -30 -8 -35 11
-3 12 -6 38 -6 58 0 42 -25 78 -83 120 -37 27 -47 29 -129 29 -88 0 -91 -1
-119 -31z m194 -43 c76 -32 99 -90 59 -153 -27 -42 -27 -42 -88 -43 -45 0 -63
4 -67 14 -5 12 5 16 46 18 46 3 52 6 55 27 3 16 -6 31 -30 52 -58 49 -106 31
-94 -36 6 -32 5 -35 -17 -35 -17 0 -27 7 -31 23 -8 31 -7 100 2 114 20 32 111
42 165 19z"/>
<path d="M2865 3531 c-11 -5 -34 -10 -51 -10 -22 -1 -37 -9 -48 -26 -26 -40
-52 -49 -91 -31 -18 9 -54 16 -79 16 -25 0 -68 9 -96 20 -37 15 -74 20 -140
20 -66 0 -103 -5 -140 -20 -28 -11 -59 -20 -69 -20 -10 0 -26 -9 -35 -19 -10
-10 -33 -22 -52 -25 -36 -7 -58 -34 -48 -60 3 -9 8 -16 10 -16 11 0 93 36 114
50 34 24 89 33 200 32 122 0 298 -16 309 -28 5 -5 11 -18 13 -28 1 -10 11 -24
21 -30 15 -9 24 -4 56 30 21 22 54 48 72 57 54 25 145 30 219 12 36 -9 79 -19
95 -22 17 -3 61 -26 98 -51 63 -41 70 -43 85 -29 13 13 13 21 4 42 -7 14 -20
28 -29 32 -28 9 -77 32 -93 42 -34 22 -108 50 -145 55 -80 13 -160 15 -180 7z"/>
<path d="M1742 3480 c0 -14 2 -19 5 -12 2 6 2 18 0 25 -3 6 -5 1 -5 -13z"/>
<path d="M2856 3406 c-31 -12 -100 -76 -91 -84 3 -3 20 10 38 29 38 39 77 59
114 59 21 0 24 -3 15 -12 -7 -7 -12 -16 -12 -22 0 -11 29 25 30 37 0 11 -60 7
-94 -7z"/>
<path d="M2991 3371 c-82 -86 -96 -91 -273 -91 -104 0 -172 5 -211 15 -35 9
-102 15 -167 15 l-109 0 -85 -50 c-47 -27 -89 -50 -95 -50 -6 0 -16 -9 -23
-20 -7 -11 -24 -20 -38 -20 -14 0 -34 -7 -44 -15 -27 -20 -33 -19 -48 12 -7
14 -25 35 -41 47 -24 18 -29 19 -43 5 -11 -12 -12 -22 -6 -40 10 -25 76 -89
134 -130 63 -45 97 -81 103 -113 4 -17 14 -42 22 -55 18 -29 35 -204 22 -237
-4 -13 -6 -31 -3 -39 8 -21 41 -19 48 3 10 29 -21 275 -38 307 -9 16 -21 53
-27 82 -10 43 -19 57 -51 79 -21 15 -38 29 -38 33 1 3 10 17 20 30 17 20 30
23 89 25 64 1 72 -1 99 -27 20 -20 43 -30 73 -33 50 -6 147 -33 167 -48 8 -6
11 -19 7 -36 -5 -25 -1 -30 41 -54 25 -14 57 -26 69 -26 12 0 33 -8 46 -19 13
-10 38 -21 54 -24 64 -11 143 -36 215 -66 41 -17 89 -31 105 -31 61 0 72 -32
16 -43 -30 -6 -49 -37 -35 -58 8 -14 114 -4 160 16 18 7 57 18 87 25 48 10 61
8 108 -10 30 -11 64 -20 76 -20 29 0 53 -10 53 -23 0 -5 13 -38 29 -72 35 -73
84 -115 134 -115 71 0 72 52 2 107 -26 20 -40 42 -51 80 -23 80 -123 163 -180
149 -13 -3 -27 0 -33 8 -37 44 190 256 273 256 18 0 36 -4 42 -8 14 -13 112
-34 124 -27 29 18 -10 65 -55 65 -17 0 -54 17 -92 43 -56 37 -65 48 -81 96
-20 64 -43 84 -68 59 -16 -15 -15 -19 3 -55 23 -44 20 -63 -10 -63 -12 -1 -33
-7 -47 -15 -33 -19 -118 -19 -163 0 -20 8 -47 15 -59 15 -13 1 -41 14 -63 30
-22 16 -50 35 -62 41 -32 17 -36 39 -13 71 24 33 26 54 4 62 -24 9 -24 9 -73
-43z m295 -453 c4 -6 6 -34 5 -62 -2 -66 -27 -89 -86 -80 -63 10 -125 51 -125
82 0 22 31 41 66 42 16 0 39 7 50 15 23 17 80 20 90 3z"/>
<path d="M1832 3365 c-1 -23 -7 -46 -14 -53 -9 -9 -9 -12 0 -12 18 0 24 22 19
66 l-4 39 -1 -40z"/>
<path d="M2235 3380 c-33 -10 -51 -19 -40 -19 11 0 42 6 69 14 63 19 117 19
163 0 19 -8 58 -15 85 -15 28 0 59 -7 73 -16 14 -9 25 -12 25 -8 0 16 -53 34
-101 34 -26 0 -63 7 -82 15 -47 20 -118 18 -192 -5z"/>
<path d="M2879 3343 l-24 -28 28 24 c25 23 32 31 24 31 -2 0 -14 -12 -28 -27z"/>
<path d="M3412 3321 c-1 -34 -8 -62 -19 -75 l-17 -21 22 21 c20 18 23 29 19
75 l-3 54 -2 -54z"/>
<path d="M1960 3356 c0 -2 8 -10 18 -17 15 -13 16 -12 3 4 -13 16 -21 21 -21
13z"/>
<path d="M2150 3341 c0 -14 -98 -34 -133 -27 -23 4 -28 3 -17 -4 20 -13 64
-12 114 2 46 14 79 38 52 38 -9 0 -16 -4 -16 -9z"/>
<path d="M3140 3341 c19 -4 55 -21 79 -39 55 -40 90 -41 122 -4 l24 27 -26
-22 c-35 -32 -68 -29 -125 12 -32 23 -59 35 -79 34 -29 -1 -29 -1 5 -8z"/>
<path d="M1305 3310 c12 -4 27 -16 35 -25 28 -34 89 -65 128 -65 21 0 44 -6
52 -12 12 -11 12 -10 1 5 -9 11 -27 17 -52 17 -41 0 -98 30 -133 69 -11 11
-26 21 -35 20 -12 0 -10 -3 4 -9z"/>
<path d="M1705 3172 c-16 -8 -33 -19 -36 -25 -4 -5 -31 -7 -62 -6 -30 2 -53 1
-50 -3 6 -11 123 -10 123 1 0 5 10 13 23 17 12 4 31 13 42 20 27 19 -1 16 -40
-4z"/>
<path d="M1823 3064 c43 -45 127 -105 127 -90 0 3 -14 13 -32 22 -17 9 -57 39
-87 67 l-56 51 48 -50z"/>
<path d="M3985 3057 c-30 -66 -35 -77 -30 -77 6 0 58 110 53 115 -2 2 -12 -15
-23 -38z"/>
<path d="M4199 3083 c-13 -16 -12 -17 4 -4 16 13 21 21 13 21 -2 0 -10 -8 -17
-17z"/>
<path d="M3810 3020 c-9 -6 -10 -10 -3 -10 6 0 15 5 18 10 8 12 4 12 -15 0z"/>
<path d="M3568 3013 c19 -4 22 -11 22 -51 0 -26 7 -55 15 -66 8 -10 19 -43 25
-73 9 -43 22 -65 66 -112 l54 -59 0 -85 c0 -47 -4 -89 -10 -92 -5 -3 -10 -11
-10 -18 0 -6 7 -2 15 9 10 13 14 45 15 103 l0 83 -54 59 c-43 46 -56 69 -65
111 -7 29 -19 63 -27 76 -11 16 -15 41 -12 73 3 49 3 49 -27 48 -24 -1 -25 -3
-7 -6z"/>
<path d="M4159 2993 c-13 -16 -12 -17 4 -4 9 7 17 15 17 17 0 8 -8 3 -21 -13z"/>
<path d="M3510 2993 c-18 -7 -84 -63 -73 -63 4 0 18 11 32 24 15 13 40 28 56
34 17 6 23 10 15 10 -8 0 -22 -2 -30 -5z"/>
<path d="M2132 2954 c1 -39 1 -39 5 -6 4 33 5 34 41 27 20 -4 41 -11 47 -16 5
-5 42 -9 82 -9 68 0 79 -3 130 -36 37 -24 76 -39 117 -46 33 -5 83 -20 109
-34 27 -13 59 -24 72 -24 12 0 28 -7 35 -15 7 -8 22 -15 35 -15 12 0 36 -7 53
-16 27 -13 30 -18 21 -38 -8 -18 -6 -30 11 -59 12 -20 26 -37 31 -37 5 0 0
-13 -12 -29 -29 -39 -20 -89 21 -119 27 -20 41 -22 174 -22 86 0 147 -4 151
-10 3 -5 19 -10 34 -10 16 0 35 -7 42 -16 7 -9 37 -27 66 -40 28 -13 55 -29
58 -35 4 -5 17 -14 28 -20 12 -5 29 -13 37 -17 49 -28 68 -32 149 -32 49 0
101 6 117 13 51 22 104 61 110 82 4 11 12 23 18 27 7 5 7 8 -2 8 -8 0 -16 -9
-19 -19 -5 -18 -55 -58 -112 -88 -14 -8 -59 -13 -112 -13 -81 0 -100 4 -149
32 -8 4 -25 12 -37 17 -11 6 -24 15 -28 20 -3 6 -27 20 -52 32 -25 11 -55 29
-66 40 -12 10 -33 19 -48 19 -15 0 -31 5 -34 10 -4 6 -66 10 -153 10 -129 1
-150 3 -170 20 -34 28 -39 75 -13 110 16 22 18 31 8 37 -7 4 -21 21 -31 37
-15 23 -16 33 -7 54 7 13 10 26 9 27 -18 13 -76 35 -95 35 -13 0 -26 7 -29 15
-4 8 -18 15 -32 15 -27 0 -102 30 -102 41 0 3 -28 10 -62 13 -62 7 -128 31
-128 46 0 4 -11 11 -25 14 -14 4 -25 11 -25 16 0 6 -35 10 -83 10 -46 0 -87 4
-92 9 -6 6 -29 13 -52 17 l-43 7 2 -39z"/>
<path d="M3655 2980 c-8 -13 13 -91 30 -110 7 -8 16 -31 20 -52 5 -24 23 -53
54 -85 55 -57 65 -95 55 -201 -6 -58 -11 -70 -38 -94 -28 -25 -38 -27 -113
-28 -78 0 -83 1 -123 35 -23 19 -46 35 -51 35 -5 0 -33 16 -63 35 -30 19 -63
35 -74 35 -10 0 -22 4 -27 9 -18 17 -128 29 -230 24 -123 -5 -145 -9 -145 -28
0 -20 25 -24 180 -27 134 -3 135 -3 215 -43 44 -21 86 -45 93 -52 7 -7 18 -13
24 -13 6 0 31 -18 55 -41 l45 -41 108 4 c107 4 109 5 148 39 44 38 52 69 52
193 0 121 -8 145 -62 197 -31 29 -48 55 -48 70 -1 24 -29 113 -43 137 -10 14
-53 16 -62 2z"/>
<path d="M3909 2953 l-24 -28 28 24 c25 23 32 31 24 31 -2 0 -14 -12 -28 -27z"/>
<path d="M400 2950 c-13 -8 -12 -15 7 -52 36 -72 42 -170 27 -423 -6 -108 -9
-124 -34 -160 -39 -57 -46 -85 -23 -85 11 0 30 19 47 48 25 40 30 63 39 157
13 153 13 361 -1 419 -16 67 -43 108 -62 96z"/>
<path d="M481 2944 c0 -11 3 -14 6 -6 3 7 2 16 -1 19 -3 4 -6 -2 -5 -13z"/>
<path d="M492 2890 c0 -19 2 -27 5 -17 2 9 2 25 0 35 -3 9 -5 1 -5 -18z"/>
<path d="M3816 2893 c-6 -14 -5 -15 5 -6 7 7 10 15 7 18 -3 3 -9 -2 -12 -12z"/>
<path d="M570 2870 c8 -5 20 -10 25 -10 6 0 3 5 -5 10 -8 5 -19 10 -25 10 -5
0 -3 -5 5 -10z"/>
<path d="M635 2797 c22 -20 47 -36 55 -36 9 0 7 3 -5 9 -12 4 -27 15 -35 24
-7 10 -23 22 -34 28 -12 6 -3 -6 19 -25z"/>
<path d="M2182 2697 l-2 -128 -37 -16 c-29 -12 -45 -13 -72 -4 -19 6 -37 9
-39 6 -2 -2 14 -9 36 -16 43 -12 109 1 118 25 3 7 3 68 1 137 l-3 124 -2 -128z"/>
<path d="M3974 2785 c-10 -8 -35 -15 -54 -16 l-35 -2 32 -4 c19 -3 42 3 59 13
l26 18 -7 -55 c-3 -30 -9 -119 -11 -199 -3 -80 -9 -149 -15 -154 -5 -6 -9 -19
-8 -30 0 -14 2 -16 6 -6 2 8 9 24 14 35 5 11 11 83 13 160 3 77 8 166 11 198
7 60 2 67 -31 42z"/>
<path d="M710 2726 c0 -2 7 -7 16 -10 8 -3 12 -2 9 4 -6 10 -25 14 -25 6z"/>
<path d="M768 2673 c7 -3 16 -2 19 1 4 3 -2 6 -13 5 -11 0 -14 -3 -6 -6z"/>
<path d="M3160 2670 c-8 -5 -31 -10 -50 -10 -19 0 -41 -4 -48 -9 -7 -4 10 -6
39 -5 29 2 57 8 63 14 13 13 77 12 151 -4 50 -11 61 -17 72 -42 6 -16 12 -22
13 -13 0 8 -6 24 -14 34 -23 32 -190 58 -226 35z"/>
<path d="M857 2579 c7 -7 15 -10 18 -7 3 3 -2 9 -12 12 -14 6 -15 5 -6 -5z"/>
<path d="M890 2550 c8 -5 20 -10 25 -10 6 0 3 5 -5 10 -8 5 -19 10 -25 10 -5
0 -3 -5 5 -10z"/>
<path d="M947 2489 c7 -7 15 -10 18 -7 3 3 -2 9 -12 12 -14 6 -15 5 -6 -5z"/>
<path d="M1000 2443 c8 -3 22 -11 30 -17 13 -10 13 -9 1 7 -7 9 -21 17 -30 16
-13 0 -14 -1 -1 -6z"/>
<path d="M1064 2389 c14 -11 32 -18 39 -16 7 4 6 6 -4 6 -9 1 -22 8 -29 16 -7
8 -17 15 -23 15 -5 0 2 -9 17 -21z"/>
<path d="M1124 2346 c11 -9 24 -16 30 -16 12 0 7 5 -24 19 -24 11 -24 11 -6
-3z"/>
<path d="M3916 2313 c-6 -14 -5 -15 5 -6 7 7 10 15 7 18 -3 3 -9 -2 -12 -12z"/>
<path d="M1190 2302 c19 -10 51 -33 70 -51 38 -36 55 -49 85 -70 11 -8 2 2
-20 22 -22 21 -51 47 -64 60 -36 33 -53 44 -81 51 -17 5 -14 1 10 -12z"/>
<path d="M3873 2270 c-32 -39 -29 -48 3 -10 15 17 25 32 23 34 -2 2 -14 -9
-26 -24z"/>
<path d="M4109 2263 c-13 -16 -12 -17 4 -4 16 13 21 21 13 21 -2 0 -10 -8 -17
-17z"/>
<path d="M3799 2193 l-34 -38 38 34 c20 19 37 36 37 38 0 8 -8 0 -41 -34z"/>
<path d="M4056 2205 c-11 -8 -15 -15 -9 -15 6 0 16 7 23 15 16 19 11 19 -14 0z"/>
<path d="M4019 2163 c-13 -16 -12 -17 4 -4 16 13 21 21 13 21 -2 0 -10 -8 -17
-17z"/>
<path d="M1367 2149 c7 -7 15 -10 18 -7 3 3 -2 9 -12 12 -14 6 -15 5 -6 -5z"/>
<path d="M3741 2137 c-13 -21 -12 -21 5 -5 10 10 16 20 13 22 -3 3 -11 -5 -18
-17z"/>
<path d="M3980 2119 c-22 -18 -22 -19 -3 -10 12 6 25 16 28 21 9 15 3 12 -25
-11z"/>
<path d="M1391 2126 c2 -2 15 -9 29 -15 24 -11 24 -11 6 3 -16 13 -49 24 -35
12z"/>
<path d="M3697 2094 c-10 -14 -16 -30 -14 -37 4 -8 6 -7 6 2 1 8 8 23 18 33 9
10 14 20 12 22 -2 2 -12 -7 -22 -20z"/>
<path d="M1440 2086 c0 -2 7 -7 16 -10 8 -3 12 -2 9 4 -6 10 -25 14 -25 6z"/>
<path d="M3902 2044 l-47 -47 50 43 c28 24 52 45 54 47 2 2 1 3 -3 3 -4 0 -28
-21 -54 -46z"/>
<path d="M1470 2056 c0 -2 7 -7 16 -10 8 -3 12 -2 9 4 -6 10 -25 14 -25 6z"/>
<path d="M3657 2031 c-4 -17 -3 -21 5 -13 5 5 8 16 6 23 -3 8 -7 3 -11 -10z"/>
<path d="M1528 2003 c7 -3 16 -2 19 1 4 3 -2 6 -13 5 -11 0 -14 -3 -6 -6z"/>
<path d="M3626 1979 c-8 -42 0 -50 9 -9 4 17 5 34 2 36 -2 3 -7 -10 -11 -27z"/>
<path d="M3839 1973 c-13 -16 -12 -17 4 -4 9 7 17 15 17 17 0 8 -8 3 -21 -13z"/>
<path d="M1590 1935 c13 -14 26 -25 28 -25 3 0 -5 11 -18 25 -13 14 -26 25
-28 25 -3 0 5 -11 18 -25z"/>
<path d="M3590 1920 c-6 -11 -8 -20 -6 -20 3 0 10 9 16 20 6 11 8 20 6 20 -3
0 -10 -9 -16 -20z"/>
<path d="M3790 1900 c-9 -6 -10 -10 -3 -10 6 0 15 5 18 10 8 12 4 12 -15 0z"/>
<path d="M1630 1893 c8 -3 22 -11 30 -17 13 -10 13 -9 1 7 -7 9 -21 17 -30 16
-13 0 -14 -1 -1 -6z"/>
<path d="M3759 1843 c-13 -16 -12 -17 4 -4 16 13 21 21 13 21 -2 0 -10 -8 -17
-17z"/>
<path d="M1694 1826 c11 -9 24 -16 30 -16 12 0 7 5 -24 19 -24 11 -24 11 -6
-3z"/>
<path d="M1759 1785 c18 -8 36 -15 40 -15 13 1 -45 29 -59 29 -8 0 0 -6 19
-14z"/>
<path d="M3710 1785 c-14 -8 -20 -14 -14 -15 5 0 19 7 30 15 24 18 16 19 -16
0z"/>
<path d="M1815 1751 c11 -5 29 -18 39 -30 11 -11 24 -21 29 -21 6 0 18 -7 27
-15 9 -8 32 -17 51 -20 l34 -5 -35 11 c-19 6 -42 17 -51 25 -8 8 -20 14 -26
14 -5 0 -20 11 -33 25 -13 14 -31 25 -39 24 -12 0 -10 -3 4 -8z"/>
<path d="M3635 1735 c-16 -14 -42 -25 -57 -25 -15 0 -30 -5 -33 -10 -4 -6 -21
-17 -38 -25 -24 -11 -26 -13 -7 -9 14 4 32 13 41 20 8 8 26 14 39 14 13 0 37
11 54 23 17 13 38 26 46 30 13 5 13 5 0 6 -8 0 -28 -11 -45 -24z"/>
<path d="M3445 1640 c-13 -6 -15 -9 -5 -9 8 0 22 4 30 9 18 12 2 12 -25 0z"/>
<path d="M3391 1600 c-13 -11 -38 -20 -57 -20 -18 0 -36 -4 -39 -10 -3 -5 -21
-16 -40 -25 -19 -8 -50 -22 -69 -30 -22 -10 -65 -15 -120 -15 l-86 0 2 -47 1
-48 4 43 4 42 81 0 c49 0 93 6 114 15 19 8 50 22 69 30 19 9 37 20 40 25 3 6
21 10 39 10 19 0 46 10 66 25 19 14 30 25 24 25 -5 -1 -20 -10 -33 -20z"/>
<path d="M2107 1459 c-13 -18 -12 -29 5 -96 37 -147 174 -283 284 -283 39 0
46 3 54 26 6 14 10 40 9 57 -1 29 -2 28 -10 -11 -11 -58 -15 -62 -60 -62 -33
0 -79 18 -99 40 -3 3 -17 11 -32 17 -16 7 -28 17 -28 22 0 6 -8 18 -18 28 -44
45 -72 96 -90 166 -17 67 -18 78 -5 96 8 12 12 21 9 21 -3 0 -11 -9 -19 -21z"/>
<path d="M2160 1431 c0 -5 7 -22 15 -37 8 -16 15 -36 15 -44 0 -9 4 -20 8 -25
5 -6 15 -26 22 -44 8 -19 28 -48 45 -64 51 -48 162 -93 140 -56 -4 5 -30 25
-59 43 -78 50 -98 77 -124 161 -18 60 -27 75 -42 75 -11 0 -20 -4 -20 -9z"/>
<path d="M2251 1424 c0 -11 3 -14 6 -6 3 7 2 16 -1 19 -3 4 -6 -2 -5 -13z"/>
</g>
</svg>
